<svg contentscripttype="text/ecmascript" zoomAndPan="magnify" xmlns:xlink="http://www.w3.org/1999/xlink" contentstyletype="text/css" id="Layer_1" enable-background="new 0 0 100 100" version="1.1" width="20px" xml:space="preserve" preserveAspectRatio="xMidYMid meet" viewBox="0 0 100 100" height="20px" xmlns="http://www.w3.org/2000/svg" x="0px" y="0px">
    <style>
		.star-fill {
			fill: gray;
		}
		.green-star .star-fill{
			fill: green;
		}
		.blue-star .star-fill{
			fill: blue;
		}
		.red-star .dynamic-fill {
			fill: #E80C0C;
		}
    </style>
<g>
	<path fill="#222222" d="M24.722,94.898c-1.242,0-2.48-0.385-3.527-1.146c-1.929-1.402-2.845-3.813-2.333-6.141l5.529-25.185   L5.115,45.303c-1.783-1.583-2.458-4.072-1.722-6.339c0.737-2.268,2.746-3.884,5.119-4.117l25.66-2.525L44.502,8.698   C45.458,6.513,47.616,5.102,50,5.102l0,0c2.384,0,4.542,1.412,5.497,3.596l10.33,23.624l25.661,2.525   c2.372,0.233,4.382,1.85,5.118,4.117c0.737,2.268,0.062,4.756-1.721,6.339L75.609,62.428l5.528,25.185   c0.512,2.328-0.405,4.739-2.334,6.141c-1.047,0.761-2.285,1.146-3.527,1.146c-1.045,0-2.094-0.272-3.033-0.824L50,81.034   l-22.244,13.04C26.816,94.626,25.768,94.898,24.722,94.898z"></path>
	<path fill="#FFFFFF" d="M24.722,93.398c-0.932,0-1.86-0.289-2.646-0.859c-1.447-1.051-2.134-2.859-1.75-4.605l5.718-26.043   L6.111,44.182c-1.337-1.188-1.844-3.054-1.291-4.755s2.06-2.913,3.839-3.088l26.535-2.611l10.683-24.43   C46.593,7.66,48.212,6.602,50,6.602l0,0c1.788,0,3.406,1.059,4.123,2.697l10.683,24.429l26.535,2.611   c1.779,0.175,3.287,1.387,3.839,3.088c0.553,1.701,0.046,3.567-1.291,4.755L73.956,61.891l5.717,26.043   c0.383,1.747-0.304,3.555-1.751,4.605c-0.785,0.57-1.714,0.859-2.645,0.859c-0.784,0-1.571-0.204-2.276-0.618L50,79.295   L26.998,92.78C26.292,93.193,25.506,93.398,24.722,93.398z"></path>
</g>
<g>
	<polygon class="star-fill" points="61.739,37.948 50,11.102 38.26,37.948 9.1,40.817 31.005,60.278 24.722,88.898 50,74.079 75.277,88.898    68.995,60.278 90.9,40.817"></polygon>
</g>
</svg>
